<svg
    xmlns="http://www.w3.org/2000/svg"
    viewBox="0 0 418 460"
    id="vector">
    <path
        id="path"
        d="M 357.21 61.81 C 310.58 44.11 260.01 34.43 207.18 34.43 C 154.35 34.43 103.77 44.12 57.14 61.81 C 53.25 63.29 49.38 64.82 45.55 66.41 C 39.62 68.87 36.92 75.75 39.53 81.61 L 118.94 259.59 L 196.74 433.98 C 200.77 443.01 213.59 443.01 217.61 433.98 L 295.41 259.59 L 374.82 81.61 C 377.43 75.75 374.73 68.87 368.8 66.41 C 364.96 64.82 361.1 63.29 357.21 61.81 Z"
        fill="#fbb040"/>
    <path
        id="path_1"
        d="M 296.315 115.176 C 297.524 118.122 299.638 120.609 302.35 122.278 C 305.062 123.947 308.234 124.713 311.409 124.465 C 314.584 124.217 317.599 122.968 320.019 120.899 C 322.439 118.829 324.141 116.044 324.879 112.946 C 325.616 109.848 325.352 106.595 324.124 103.657 C 322.915 100.711 320.801 98.224 318.089 96.555 C 315.377 94.886 312.205 94.12 309.03 94.368 C 305.855 94.616 302.84 95.865 300.42 97.934 C 298 100.004 296.298 102.789 295.56 105.887 C 294.823 108.985 295.087 112.238 296.315 115.176 Z"
        fill="#e29734"/>
    <path
        id="path_2"
        d="M 171.526 293.335 C 173.546 293.827 175.67 293.663 177.591 292.869 C 179.511 292.074 181.13 290.689 182.212 288.914 C 183.294 287.139 183.783 285.065 183.61 282.994 C 183.436 280.923 182.608 278.96 181.245 277.39 C 179.883 275.82 178.056 274.724 176.03 274.26 C 174.01 273.768 171.886 273.932 169.965 274.726 C 168.045 275.521 166.426 276.906 165.344 278.681 C 164.262 280.456 163.773 282.53 163.946 284.601 C 164.12 286.672 164.948 288.635 166.311 290.205 C 167.673 291.775 169.5 292.871 171.526 293.335 Z"
        fill="#e29734"/>
    <path
        id="path_3"
        d="M 132.384 92.877 C 134.404 93.369 136.528 93.205 138.449 92.411 C 140.369 91.616 141.988 90.231 143.07 88.456 C 144.152 86.681 144.641 84.607 144.468 82.536 C 144.294 80.465 143.466 78.502 142.103 76.932 C 140.741 75.362 138.914 74.266 136.888 73.802 C 134.868 73.31 132.744 73.474 130.823 74.268 C 128.903 75.063 127.284 76.448 126.202 78.223 C 125.12 79.998 124.631 82.072 124.804 84.143 C 124.978 86.214 125.806 88.177 127.169 89.747 C 128.531 91.317 130.358 92.413 132.384 92.877 Z"
        fill="#e29734"/>
    <path
        id="path_4"
        d="M 217.591 374.81 C 219.051 376.289 220.944 377.266 222.995 377.599 C 225.046 377.932 227.151 377.604 229.003 376.663 C 230.856 375.722 232.362 374.216 233.303 372.363 C 234.244 370.511 234.572 368.406 234.239 366.355 C 233.906 364.304 232.929 362.411 231.45 360.951 C 229.99 359.472 228.097 358.495 226.046 358.162 C 223.995 357.829 221.89 358.157 220.038 359.098 C 218.185 360.039 216.679 361.545 215.738 363.398 C 214.797 365.25 214.469 367.355 214.802 369.406 C 215.135 371.457 216.112 373.35 217.591 374.81 Z"
        fill="#e29734"/>
    <path
        id="path_5"
        d="M 266.279 271.099 C 267.739 272.578 269.632 273.555 271.683 273.888 C 273.734 274.221 275.839 273.893 277.691 272.952 C 279.544 272.011 281.05 270.505 281.991 268.652 C 282.932 266.8 283.26 264.695 282.927 262.644 C 282.594 260.593 281.617 258.7 280.138 257.24 C 278.678 255.761 276.785 254.784 274.734 254.451 C 272.683 254.118 270.578 254.446 268.726 255.387 C 266.873 256.328 265.367 257.834 264.426 259.687 C 263.485 261.539 263.157 263.644 263.49 265.695 C 263.823 267.746 264.8 269.639 266.279 271.099 Z"
        fill="#e29734"/>
    <path
        id="path_6"
        d="M 152.19 245.54 C 152.19 224.54 135.16 207.51 114.16 207.51 C 108.17 207.51 102.51 208.9 97.47 211.37 L 120.9 263.88 L 128.45 280.79 C 142.37 275.14 152.19 261.49 152.19 245.54 Z"
        fill="#db2a22"/>
    <path
        id="path_7"
        d="M 339.76 132.69 C 322.54 132.69 308.57 146.65 308.57 163.88 C 308.57 176.05 315.54 186.58 325.7 191.72 L 351.08 134.83 C 347.58 133.45 343.76 132.69 339.76 132.69 Z"
        fill="#db2a22"/>
    <path
        id="path_8"
        d="M 241.07 273.97 C 218.89 273.97 200.91 291.95 200.91 314.13 C 200.91 336.31 218.89 354.29 241.07 354.29 C 245.66 354.29 250.06 353.51 254.17 352.09 L 278.08 298.5 C 271.98 284.09 257.71 273.97 241.07 273.97 Z"
        fill="#db2a22"/>
    <path
        id="path_9"
        d="M 381.94 98.91 C 378.64 98.91 375.29 98.13 372.17 96.5 C 320.28 69.31 264.62 55.53 206.72 55.53 C 149.27 55.52 94 69.1 42.44 95.88 C 32.1 101.25 19.37 97.22 14 86.88 C 8.63 76.54 12.66 63.81 23 58.44 C 80.63 28.51 142.44 13.33 206.72 13.33 C 271.51 13.33 333.76 28.74 391.75 59.12 C 402.07 64.53 406.05 77.28 400.64 87.6 C 396.87 94.8 389.53 98.91 381.94 98.91 Z"
        fill="#bc8235"/>
    <path
        id="path_10"
        d="M 255.58 208.35 C 252.83 210.19 249.08 209.91 246.65 207.48 C 224.84 185.76 189.43 185.84 167.71 207.64 C 164.95 210.41 160.47 210.42 157.7 207.66 C 154.93 204.9 154.92 200.42 157.68 197.66 C 184.91 170.32 229.29 170.23 256.63 197.46 C 259.4 200.22 259.41 204.7 256.65 207.46 C 256.32 207.8 255.96 208.09 255.58 208.35 Z"
        fill="#032356"/>
    <path
        id="path_11"
        d="M 158.96 141.88 M 141.88 141.88 C 141.88 137.352 143.681 133.005 146.883 129.803 C 150.085 126.601 154.432 124.8 158.96 124.8 C 163.488 124.8 167.835 126.601 171.037 129.803 C 174.239 133.005 176.04 137.352 176.04 141.88 C 176.04 146.408 174.239 150.755 171.037 153.957 C 167.835 157.159 163.488 158.96 158.96 158.96 C 154.432 158.96 150.085 157.159 146.883 153.957 C 143.681 150.755 141.88 146.408 141.88 141.88"
        fill="#032356"/>
    <path
        id="path_12"
        d="M 252.657 156.631 C 256.222 157.221 259.884 156.665 263.114 155.043 C 266.343 153.42 268.975 150.814 270.63 147.602 C 272.285 144.389 272.879 140.733 272.325 137.162 C 271.771 133.591 270.097 130.286 267.547 127.726 C 264.996 125.165 261.698 123.48 258.129 122.912 C 254.564 122.322 250.902 122.878 247.672 124.5 C 244.443 126.123 241.811 128.729 240.156 131.941 C 238.501 135.154 237.907 138.81 238.461 142.381 C 239.015 145.952 240.689 149.257 243.239 151.817 C 245.79 154.378 249.088 156.063 252.657 156.631 Z"
        fill="#032356"/>
</svg>
